# xmcd
#
# Track frame offsets: 
#        150
#        6567
#        52512
#        95727
#        118660
#        141887
#        204867
#        210155
#
# Disc length: 3426 seconds
#
# Revision: 2
# Processed by: cddbd v1.5.2PL0 Copyright (c) Steve Scherf et al.
# Submitted via: ExactAudioCopy v0.99pb5
#
DISCID=640d6008
DTITLE=String Cheese Incident - OTR 04-19-2002 Birmingham, AL [CD3]
DYEAR=2002
DGENRE=Jam Band
TTITLE0=Django Ditty
TTITLE1=Rivertrance
TTITLE2=Pretty Polly
TTITLE3=Rivertrance
TTITLE4=Drum Jam
TTITLE5=Way Back Home
TTITLE6=Chatter
TTITLE7=I Know You Rider
EXTD=
EXTT0=
EXTT1=
EXTT2=
EXTT3=
EXTT4=
EXTT5=
EXTT6=
EXTT7=
PLAYORDER=
